<svg width="32" height="32" viewBox="0 0 32 32" fill="none" xmlns="http://www.w3.org/2000/svg">
<path d="M15.2185 27.2088C15.7026 28.7339 14.5579 30.3496 12.9074 30.3496H4.19627C2.60576 30.3496 1.40235 28.8099 1.88522 27.2088L3.28373 22.6696C3.60368 21.6504 4.52816 20.963 5.60664 20.963H11.5089C12.5755 20.963 13.5119 21.6504 13.82 22.6696L15.2185 27.2088ZM27.8052 30.3496H19.0941C17.4423 30.3496 16.2993 28.7328 16.7829 27.2088L18.1815 22.6696C18.4896 21.6504 19.4259 20.963 20.4926 20.963H26.3948C27.4733 20.963 28.3978 21.6504 28.7178 22.6696L30.1163 27.2088C30.5994 28.8108 29.3947 30.3496 27.8052 30.3496ZM22.9459 9.15256C22.4837 8.69032 22.4837 7.94372 22.9459 7.48148L24.5459 5.88144C25.0081 5.41927 25.7667 5.41927 26.2289 5.88144C26.6911 6.34368 26.6911 7.09035 26.2289 7.55259L24.6289 9.15256C24.1544 9.62706 23.421 9.62765 22.9459 9.15256ZM14.8156 5.09925V2.83558C14.8156 2.1718 15.3489 1.65039 16.0007 1.65039C16.6526 1.65039 17.1859 2.1718 17.1859 2.83558V5.09925C17.1859 5.75109 16.6526 6.28443 16.0007 6.28443C15.3489 6.28443 14.8156 5.75109 14.8156 5.09925ZM9.32814 15.9081L10.7385 11.3689C11.0467 10.3496 11.9829 9.66218 13.0496 9.66218H18.9518C20.0185 9.66218 20.9548 10.3496 21.263 11.3689L22.6733 15.9081C23.1443 17.4448 22.0094 19.037 20.3503 19.037H11.6511C9.99191 19.037 8.85727 17.4446 9.32814 15.9081ZM5.77258 7.55259C5.31035 7.09035 5.31035 6.34368 5.77258 5.88144C6.23482 5.41927 6.99336 5.41927 7.45553 5.88144L9.05557 7.48148C9.51781 7.94372 9.51781 8.69032 9.05557 9.15256C8.58107 9.62706 7.84764 9.62765 7.37256 9.15256L5.77258 7.55259Z" fill="#64C4F7"/>
</svg>
