<svg width="24" height="24" viewBox="0 0 24 24" fill="none" xmlns="http://www.w3.org/2000/svg">
<path d="M18.04 13.5519C17.62 13.9619 17.38 14.5519 17.44 15.1819C17.53 16.2619 18.52 17.0519 19.6 17.0519H21.5V18.2419C21.5 20.3119 19.81 22.002 17.74 22.002H7.63C7.94 21.742 8.21 21.422 8.42 21.062C8.79 20.462 9 19.752 9 19.002C9 16.792 7.21 15.002 5 15.002C4.06 15.002 3.19 15.332 2.5 15.882V11.512C2.5 9.44196 4.19 7.75195 6.26 7.75195H17.74C19.81 7.75195 21.5 9.44196 21.5 11.512V12.952H19.48C18.92 12.952 18.41 13.1719 18.04 13.5519Z" stroke="#3D4754" stroke-width="1.5" stroke-linecap="round" stroke-linejoin="round"/>
<path d="M2.5 12.4118V7.84181C2.5 6.65181 3.23 5.59177 4.34 5.17177L12.28 2.17177C13.52 1.70177 14.85 2.6218 14.85 3.9518V7.75179" stroke="#3D4754" stroke-width="1.5" stroke-linecap="round" stroke-linejoin="round"/>
<path d="M22.5588 13.9721V16.0322C22.5588 16.5822 22.1188 17.0321 21.5588 17.0521H19.5988C18.5188 17.0521 17.5288 16.2621 17.4388 15.1821C17.3788 14.5521 17.6188 13.9621 18.0388 13.5521C18.4088 13.1721 18.9188 12.9521 19.4788 12.9521H21.5588C22.1188 12.9721 22.5588 13.4221 22.5588 13.9721Z" stroke="#3D4754" stroke-width="1.5" stroke-linecap="round" stroke-linejoin="round"/>
<path d="M7 12.002H14" stroke="#3D4754" stroke-width="1.5" stroke-linecap="round" stroke-linejoin="round"/>
<path d="M9 19.002C9 19.752 8.79 20.462 8.42 21.062C8.21 21.422 7.94 21.742 7.63 22.002C6.93 22.632 6.01 23.002 5 23.002C3.54 23.002 2.27 22.222 1.58 21.062C1.21 20.462 1 19.752 1 19.002C1 17.742 1.58 16.612 2.5 15.882C3.19 15.332 4.06 15.002 5 15.002C7.21 15.002 9 16.792 9 19.002Z" stroke="#3D4754" stroke-width="1.5" stroke-miterlimit="10" stroke-linecap="round" stroke-linejoin="round"/>
<path d="M6.49171 18.9814H3.51172" stroke="#3D4754" stroke-width="1.5" stroke-miterlimit="10" stroke-linecap="round" stroke-linejoin="round"/>
<path d="M5 17.5215V20.5115" stroke="#3D4754" stroke-width="1.5" stroke-miterlimit="10" stroke-linecap="round" stroke-linejoin="round"/>
</svg>
