<svg width="32" height="32" viewBox="0 0 32 32" fill="none" xmlns="http://www.w3.org/2000/svg">
<path fill-rule="evenodd" clip-rule="evenodd" d="M27 11.5002C27 11.2352 26.8945 10.9807 26.707 10.7932L17.707 1.79324C17.5195 1.60574 17.265 1.50024 17 1.50024H8C7.2045 1.50024 6.4415 1.81624 5.879 2.37874C5.3165 2.94174 5 3.70474 5 4.50024C5 9.50024 5 22.5002 5 27.5002C5 28.2957 5.3165 29.0587 5.879 29.6217C6.4415 30.1842 7.2045 30.5002 8 30.5002H24C25.657 30.5002 27 29.1572 27 27.5002C27 22.8107 27 11.5002 27 11.5002ZM17 3.91424V10.5002C17 10.7652 17.1055 11.0197 17.293 11.2072C17.4805 11.3947 17.735 11.5002 18 11.5002H24.586L17 3.91424Z" fill="#F8C140"/>
</svg>
