<svg width="32" height="32" viewBox="0 0 32 32" fill="none" xmlns="http://www.w3.org/2000/svg">
<path d="M20.5 18.8C23.3 17.2 25 14.2 25 11C25 7.8 23.3 4.8 20.5 3.2C19.2 2.4 17.6 2 16 2C11 2 7 6 7 11C7 15.6 10.5 19.5 15 19.9C15 19.9 15 19.9 15 20V23.3C13.3 21.3 10.8 20 8 20C7.5 20 7 20.5 7 21C7 26 11 30 16 30C20.9 30 25 26 25 21C25 20.5 24.5 20 24 20C21.2 20 18.7 21.3 17 23.4V20C17 20 17 20 17 19.9C18.2 19.8 19.4 19.4 20.5 18.8ZM16 16C15.5 16 15 15.5 15 15H14C13.5 15 13 14.5 13 14C13 13.5 13.5 13 14 13H16.5C16.8 13 17 12.8 17 12.5C17 12.2 16.8 12 16.5 12H15.5C14.1 12 13 10.9 13 9.5C13 8.3 13.9 7.3 15 7C15 6.5 15.5 6 16 6C16.5 6 17 6.5 17 7H18C18.5 7 19 7.5 19 8C19 8.5 18.5 9 18 9H15.5C15.2 9 15 9.2 15 9.5C15 9.8 15.2 10 15.5 10H16.5C17.9 10 19 11.1 19 12.5C19 13.7 18.1 14.7 17 15C17 15.5 16.5 16 16 16Z" fill="#F58869"/>
</svg>
