<svg width="24" height="24" viewBox="0 0 24 24" fill="none" xmlns="http://www.w3.org/2000/svg">
<path d="M22 6.00195V8.42195C22 10.002 21 11.002 19.42 11.002H16V4.01195C16 2.90195 16.91 2.00195 18.02 2.00195C19.11 2.01195 20.11 2.45195 20.83 3.17195C21.55 3.90195 22 4.90195 22 6.00195Z" stroke="#3D4754" stroke-width="1.5" stroke-miterlimit="10" stroke-linecap="round" stroke-linejoin="round"/>
<path d="M2 7.00195V21.002C2 21.832 2.94 22.302 3.6 21.802L5.31 20.5219C5.71 20.2219 6.27 20.262 6.63 20.622L8.29 22.292C8.68 22.682 9.32 22.682 9.71 22.292L11.39 20.612C11.74 20.262 12.3 20.2219 12.69 20.5219L14.4 21.802C15.06 22.292 16 21.822 16 21.002V4.00195C16 2.90195 16.9 2.00195 18 2.00195H7H6C3 2.00195 2 3.79195 2 6.00195V7.00195Z" stroke="#3D4754" stroke-width="1.5" stroke-miterlimit="10" stroke-linecap="round" stroke-linejoin="round"/>
<path d="M6.25 10.002H11.75" stroke="#3D4754" stroke-width="1.5" stroke-linecap="round" stroke-linejoin="round"/>
</svg>
