<svg width="32" height="26" viewBox="0 0 32 26" fill="none" xmlns="http://www.w3.org/2000/svg">
<path d="M30 4.73004H24.29V3.56006C24.29 1.63007 22.72 0.0600586 20.79 0.0600586H11.21C9.28003 0.0600586 7.71002 1.63007 7.71002 3.56006V4.73004H2C1.16998 4.73004 0.5 5.40002 0.5 6.23004V22.4401C0.5 24.3701 2.07001 25.9401 4 25.9401H28C29.93 25.9401 31.5 24.3701 31.5 22.4401V6.23004C31.5 5.40002 30.83 4.73004 30 4.73004ZM10.71 3.56006C10.71 3.29004 10.94 3.06006 11.21 3.06006H20.79C21.06 3.06006 21.29 3.29004 21.29 3.56006V4.73004H10.71V3.56006ZM18.63 14.4501V16.43H13.37V14.4501H18.63ZM28.5 22.4401C28.5 22.71 28.28 22.9401 28 22.9401H4C3.71997 22.9401 3.5 22.71 3.5 22.4401V14.9401C4.96997 16.18 6.87 16.9401 8.94 16.9401H10.37V17.93C10.37 18.7601 11.04 19.43 11.87 19.43H20.13C20.96 19.43 21.63 18.7601 21.63 17.93V16.9401H23.06C25.13 16.9401 27.03 16.18 28.5 14.9401V22.4401Z" fill="#19DBCC"/>
</svg>
